HIERARCHY
ROOT reference
{
  OFFSET 0 0 0
  CHANNELS 6 Xposition Yposition Zposition Zrotation Xrotation Yrotation
  JOINT Hips
  {
    OFFSET 3.27099 74.0722 82.5407
    CHANNELS 6 Xposition Yposition Zposition Zrotation Xrotation Yrotation
    JOINT Spine
    {
      OFFSET 0 7.31558 0
      CHANNELS 6 Xposition Yposition Zposition Zrotation Xrotation Yrotation
      JOINT Spine1
      {
        OFFSET 0 21.7428 0
        CHANNELS 6 Xposition Yposition Zposition Zrotation Xrotation Yrotation
        JOINT Neck
        {
          OFFSET 0 21.6535 1.9685
          CHANNELS 6 Xposition Yposition Zposition Zrotation Xrotation Yrotation
          JOINT Head
          {
            OFFSET 0 12.49 -1.78429
            CHANNELS 6 Xposition Yposition Zposition Zrotation Xrotation Yrotation
            End Site
            {
              OFFSET 0 22.3036 0
            }
          }
        }
        JOINT LeftShoulder
        {
          OFFSET 3.56546 21.4407 -0.045508
          CHANNELS 6 Xposition Yposition Zposition Zrotation Xrotation Yrotation
          JOINT LeftArm
          {
            OFFSET 5.86532 0 0
            CHANNELS 6 Xposition Yposition Zposition Zrotation Xrotation Yrotation
            JOINT LeftForeArm
            {
              OFFSET 30.0831 0 0
              CHANNELS 6 Xposition Yposition Zposition Zrotation Xrotation Yrotation
              JOINT LeftHand
              {
                OFFSET 21.3133 0 0
                CHANNELS 6 Xposition Yposition Zposition Zrotation Xrotation Yrotation
                End Site
                {
                  OFFSET 13.3822 0 0
                }
              }
            }
          }
        }
        JOINT RightShoulder
        {
          OFFSET -3.55605 21.4407 -0.045508
          CHANNELS 6 Xposition Yposition Zposition Zrotation Xrotation Yrotation
          JOINT RightArm
          {
            OFFSET -5.86532 0 0
            CHANNELS 6 Xposition Yposition Zposition Zrotation Xrotation Yrotation
            JOINT RightForeArm
            {
              OFFSET -30.0831 0 0
              CHANNELS 6 Xposition Yposition Zposition Zrotation Xrotation Yrotation
              JOINT RightHand
              {
                OFFSET -21.3133 0 0
                CHANNELS 6 Xposition Yposition Zposition Zrotation Xrotation Yrotation
                End Site
                {
                  OFFSET -13.3822 0 0
                }
              }
            }
          }
        }
      }
    }
    JOINT LeftUpLeg
    {
      OFFSET 8.92144 0 0
      CHANNELS 6 Xposition Yposition Zposition Zrotation Xrotation Yrotation
      JOINT LeftLeg
      {
        OFFSET 0 -39.6329 0
        CHANNELS 6 Xposition Yposition Zposition Zrotation Xrotation Yrotation
        JOINT LeftFoot
        {
          OFFSET 0 -38.0584 0
          CHANNELS 6 Xposition Yposition Zposition Zrotation Xrotation Yrotation
          JOINT LeftToeBase
          {
            OFFSET 0 -5.79894 13.3822
            CHANNELS 6 Xposition Yposition Zposition Zrotation Xrotation Yrotation
            End Site
            {
              OFFSET 0 0 3.56858
            }
          }
        }
      }
    }
    JOINT RightUpLeg
    {
      OFFSET -8.92144 0 0
      CHANNELS 6 Xposition Yposition Zposition Zrotation Xrotation Yrotation
      JOINT RightLeg
      {
        OFFSET 0 -39.6329 0
        CHANNELS 6 Xposition Yposition Zposition Zrotation Xrotation Yrotation
        JOINT RightFoot
        {
          OFFSET 0 -38.0584 0
          CHANNELS 6 Xposition Yposition Zposition Zrotation Xrotation Yrotation
          JOINT RightToeBase
          {
            OFFSET 0 -5.79894 13.3822
            CHANNELS 6 Xposition Yposition Zposition Zrotation Xrotation Yrotation
            End Site
            {
              OFFSET 0 0 3.56858
            }
          }
        }
      }
    }
  }
}
MOTION
Frames:	10
Frame Time:	0.004
0 0 0 0 0 -0 -13.5182 66.3458 -164.537 -2.78453 5.14407 14.7794 -3.55271e-015 7.31558 2.84217e-014 4.68884 35.3966 -4.46482 -3.55271e-015 21.7428 2.84217e-014 3.10896 12.3393 -3.30426 1.77636e-015 21.6535 1.9685 0.026556 -11.8892 0.105325 0 12.49 -1.78429 -5.20208 -21.959 -1.60296 3.56546 21.4407 -0.045508 -3.52855 9.35468 -17.574 5.86532 2.84217e-014 2.84217e-014 -32.8278 45.7682 -25.9573 30.0831 0 -7.10543e-015 47.6094 -32.8297 -30.1173 21.3133 0 7.10543e-015 23.9968 -19.5058 5.78465 -3.55605 21.4407 -0.045508 7.27578 8.66096 4.99318 -5.86532 0 -2.84217e-014 26.3297 49.7079 26.9559 -30.0831 2.84217e-014 0 -20.2906 -24.5546 44.7298 -21.3133 -2.84217e-014 0 -9.46135 -16.8816 2.93421 8.92144 0 2.84217e-014 -0.492034 -33.4051 2.75035 0 -39.6329 -1.42109e-014 113.346 78.8306 -112.971 0 -38.0584 0 -6.94287 -2.81029 0.593187 0 -5.79894 13.3822 -0 0 7.95139e-016 -8.92144 -1.42109e-014 2.84217e-014 -7.08301 -55.9279 -12.9298 -3.55271e-015 -39.6329 0 11.8537 76.0219 5.60858 0 -38.0584 0 -0.845044 -5.53835 -16.9985 0 -5.79894 13.3822 -0 -3.18055e-015 -0 
0 0 0 0 0 -0 -13.5315 66.3871 -164.224 -2.80077 5.11031 14.7239 -7.10543e-015 7.31558 0 4.68843 35.4274 -4.41778 0 21.7428 0 3.04464 12.3246 -3.24857 1.77636e-015 21.6535 1.9685 0.10781 -11.9154 0.100231 -8.88178e-016 12.49 -1.78429 -5.24184 -21.9041 -1.63972 3.56546 21.4407 -0.045508 -3.5312 9.45662 -17.5704 5.86532 1.42109e-014 2.84217e-014 -32.8746 45.5386 -25.9021 30.0831 0 7.10543e-015 47.8271 -32.7888 -30.1757 21.3133 0 1.42109e-014 23.7057 -19.4186 5.59432 -3.55605 21.4407 -0.045508 7.14218 8.50695 5.06165 -5.86532 0 0 26.5835 49.8512 26.8687 -30.0831 -2.84217e-014 7.10543e-015 -20.2608 -24.4717 44.6648 -21.3133 -1.42109e-014 0 -9.704 -16.8151 2.80344 8.92144 -7.10543e-015 0 -0.367119 -34.4532 3.29508 0 -39.6329 1.42109e-014 115.559 78.2696 -115.365 0 -38.0584 0 -6.84833 -2.91719 0.744534 -7.10543e-015 -5.79894 13.3822 -4.41391e-032 -3.18055e-015 -7.95139e-016 -8.92144 -7.10543e-015 -2.84217e-014 -6.85833 -55.7052 -12.7381 0 -39.6329 7.10543e-015 12.2426 76.1062 5.47123 7.10543e-015 -38.0584 0 -1.05599 -5.64532 -17.321 1.77636e-015 -5.79894 13.3822 0 3.18055e-015 -0 
0 0 0 0 0 -0 -13.5456 66.4253 -163.906 -2.81482 5.05459 14.6546 -3.55271e-015 7.31558 0 4.62113 35.4833 -4.34882 0 21.7428 0 3.06652 12.3114 -3.2007 -1.77636e-015 21.6535 1.9685 0.089651 -11.9206 0.103955 0 12.49 -1.78429 -5.1678 -21.9069 -1.60734 3.56546 21.4407 -0.045508 -3.57055 9.37499 -17.5282 5.86532 0 -2.84217e-014 -32.9162 45.7767 -25.8235 30.0831 0 -7.10543e-015 48.0721 -32.9905 -30.0245 21.3133 0 -7.10543e-015 24.0121 -19.5713 5.85588 -3.55605 21.4407 -0.045508 7.30534 8.63943 4.96617 -5.86532 -1.42109e-014 -2.84217e-014 26.0121 49.8429 27.2386 -30.0831 0 0 -20.1609 -24.4098 44.6136 -21.3133 4.26326e-014 0 -9.62057 -16.8148 2.99886 8.92144 -7.10543e-015 0 -0.33118 -35.395 2.94241 7.10543e-015 -39.6329 -1.42109e-014 118.334 78.4798 -117.348 7.10543e-015 -38.0584 -1.42109e-014 -6.94775 -2.98039 -0.142433 0 -5.79894 13.3822 -3.18055e-015 0 -7.95139e-016 -8.92144 -7.10543e-015 0 -6.61685 -55.5822 -12.798 0 -39.6329 -7.10543e-015 11.5938 76.4077 6.36752 -7.10543e-015 -38.0584 0 -1.01621 -5.51316 -17.6929 0 -5.79894 13.3822 3.97569e-016 -3.18055e-015 1.59028e-015 
0 0 0 0 0 -0 -13.5624 66.4634 -163.596 -2.81916 4.98125 14.5858 -3.55271e-015 7.31558 0 4.54054 35.531 -4.25781 3.55271e-015 21.7428 -2.84217e-014 3.09486 12.3587 -3.13777 3.55271e-015 21.6535 1.9685 0.032767 -11.7715 0.049857 8.88178e-016 12.49 -1.78429 -5.04986 -22.1847 -1.62111 3.56546 21.4407 -0.045508 -3.5463 9.52621 -17.5344 5.86532 0 0 -32.7881 45.6508 -25.9366 30.0831 0 7.10543e-015 48.3905 -32.9869 -29.937 21.3133 0 7.10543e-015 23.8309 -19.522 5.83875 -3.55605 21.4407 -0.045508 7.23954 8.59352 4.94263 -5.86532 0 0 25.8855 50.0534 27.4251 -30.0831 0 -1.42109e-014 -20.3353 -24.4733 44.4379 -21.3133 -1.42109e-014 7.10543e-015 -9.53283 -16.8456 3.02261 8.92144 -1.42109e-014 0 -0.239549 -36.3331 3.05398 0 -39.6329 0 120.537 78.2551 -119.896 0 -38.0584 0 -7.04063 -3.2568 0.118342 0 -5.79894 13.3822 3.18055e-015 6.36111e-015 1.59028e-015 -8.92144 7.10543e-015 0 -6.33529 -55.2154 -12.4372 -3.55271e-015 -39.6329 1.42109e-014 12.2906 76.3325 5.8311 0 -38.0584 0 -1.28417 -5.9309 -17.8681 1.77636e-015 -5.79894 13.3822 7.95139e-016 -3.18055e-015 -0 
0 0 0 0 0 -0 -13.5802 66.4941 -163.3 -2.83277 4.98994 14.5204 0 7.31558 -2.84217e-014 4.49276 35.4812 -4.18722 3.55271e-015 21.7428 0 3.05336 12.4277 -3.08205 -1.77636e-015 21.6535 1.9685 0.111301 -11.8766 0.044158 2.66454e-015 12.49 -1.78429 -5.10661 -22.0568 -1.66065 3.56546 21.4407 -0.045508 -3.45993 9.55574 -17.4678 5.86532 -1.42109e-014 0 -32.8048 45.5061 -26.0002 30.0831 0 -7.10543e-015 48.2491 -33.077 -30.1642 21.3133 0 -7.10543e-015 24.1946 -19.5106 6.00449 -3.55605 21.4407 -0.045508 7.27322 8.69112 4.90527 -5.86532 1.42109e-014 0 25.8327 49.7943 27.5525 -30.0831 0 -2.13163e-014 -20.2369 -24.2741 44.4887 -21.3133 -1.42109e-014 0 -9.71231 -16.664 2.94479 8.92144 0 0 -0.214143 -37.4208 3.19101 0 -39.6329 0 122.378 77.9663 -121.881 0 -38.0584 -1.42109e-014 -6.82208 -3.38231 0.306037 -7.10543e-015 -5.79894 13.3822 -3.18055e-015 -3.18055e-015 -0 -8.92144 -1.42109e-014 -2.84217e-014 -6.06525 -55.1048 -12.195 3.55271e-015 -39.6329 -7.10543e-015 12.4647 76.465 5.45091 0 -38.0584 -2.84217e-014 -1.37109 -5.89723 -17.6917 5.32907e-015 -5.79894 13.3822 -7.95139e-016 -6.36111e-015 -0 
0 0 0 0 0 -0 -13.5885 66.5221 -162.994 -2.82162 4.9485 14.4721 -7.10543e-015 7.31558 2.84217e-014 4.44173 35.4958 -4.10682 -3.55271e-015 21.7428 0 2.99761 12.4488 -3.01188 0 21.6535 1.9685 0.320903 -11.7713 0.077738 0 12.49 -1.78429 -5.30968 -22.2305 -1.75516 3.56546 21.4407 -0.045508 -3.42253 9.39361 -17.5609 5.86532 0 0 -33.17 45.5888 -25.5916 30.0831 2.84217e-014 7.10543e-015 48.4591 -33.206 -30.2546 21.3133 -1.42109e-014 0 24.1666 -19.5669 5.9239 -3.55605 21.4407 -0.045508 7.32524 8.63571 4.87235 -5.86532 -1.42109e-014 0 25.8941 49.6939 27.4709 -30.0831 0 0 -20.0989 -24.0618 44.5528 -21.3133 1.42109e-014 -7.10543e-015 -9.70189 -16.4896 3.01199 8.92144 -1.42109e-014 2.84217e-014 -0.223773 -38.418 3.19466 0 -39.6329 1.42109e-014 124.012 77.7867 -123.439 -3.55271e-015 -38.0584 0 -7.01658 -3.52912 0.29523 7.10543e-015 -5.79894 13.3822 -1.59028e-015 -3.18055e-015 1.59028e-015 -8.92144 -1.42109e-014 0 -5.87224 -54.9167 -12.1893 0 -39.6329 -7.10543e-015 11.8022 76.6483 6.01112 -7.10543e-015 -38.0584 0 -1.23938 -6.04388 -17.4954 0 -5.79894 13.3822 7.95139e-016 9.54166e-015 -1.59028e-015 
0 0 0 0 0 -0 -13.5936 66.5535 -162.684 -2.79926 4.87788 14.4217 3.55271e-015 7.31558 2.84217e-014 4.39892 35.5764 -4.06689 -3.55271e-015 21.7428 0 2.96978 12.4276 -2.97867 3.55271e-015 21.6535 1.9685 0.293234 -11.7733 0.071034 1.77636e-015 12.49 -1.78429 -5.21644 -22.1992 -1.73665 3.56546 21.4407 -0.045508 -3.47572 9.48603 -17.52 5.86532 1.42109e-014 0 -33.1132 45.5401 -25.5603 30.0831 2.84217e-014 0 48.8065 -33.2258 -30.1737 21.3133 0 0 24.0291 -19.5217 5.94407 -3.55605 21.4407 -0.045508 7.32306 8.65732 4.94611 -5.86532 0 0 25.8998 49.7768 27.467 -30.0831 -2.84217e-014 -7.10543e-015 -20.2178 -24.1342 44.4869 -21.3133 2.84217e-014 7.10543e-015 -9.74571 -16.5198 2.86935 8.92144 0 2.84217e-014 -0.236427 -39.3962 3.20927 0 -39.6329 0 125.481 77.6669 -124.81 -3.55271e-015 -38.0584 0 -6.84867 -3.54403 0.290256 0 -5.79894 13.3822 0 3.18055e-015 -0 -8.92144 -7.10543e-015 0 -5.7009 -54.6725 -12.1671 1.77636e-015 -39.6329 -1.42109e-014 11.9231 76.6436 4.84824 0 -38.0584 0 -1.39484 -6.01071 -16.6453 0 -5.79894 13.3822 -3.97569e-016 -3.18055e-015 -0 
0 0 0 0 0 -0 -13.6131 66.5778 -162.387 -2.82611 4.85502 14.3637 0 7.31558 2.84217e-014 4.34351 35.5556 -3.97376 -3.55271e-015 21.7428 -2.84217e-014 2.98408 12.5005 -2.90767 0 21.6535 1.9685 0.286953 -11.8466 0.036887 0 12.49 -1.78429 -5.21102 -22.1523 -1.75206 3.56546 21.4407 -0.045508 -3.47415 9.42473 -17.4969 5.86532 1.42109e-014 0 -33.1432 45.5046 -25.5388 30.0831 0 0 48.6721 -33.3298 -30.2706 21.3133 0 0 24.3936 -19.6237 5.9112 -3.55605 21.4407 -0.045508 7.25464 9.06373 4.78532 -5.86532 0 0 25.38 49.5908 28.1246 -30.0831 -2.84217e-014 -7.10543e-015 -20.3453 -24.163 44.361 -21.3133 -2.84217e-014 -7.10543e-015 -9.6676 -16.526 2.92141 8.92144 0 2.84217e-014 -0.18839 -40.4279 3.27615 -7.10543e-015 -39.6329 1.42109e-014 125.724 77.6263 -122.322 0 -38.0584 0 -6.96264 -3.04783 -2.69165 0 -5.79894 13.3822 8.82781e-032 3.18055e-015 -1.59028e-015 -8.92144 -1.42109e-014 0 -5.43515 -54.4706 -11.8729 3.55271e-015 -39.6329 7.10543e-015 12.591 76.7031 4.09142 0 -38.0584 0 -1.64036 -6.10862 -16.6579 1.77636e-015 -5.79894 13.3822 1.59028e-015 3.18055e-015 1.59028e-015 
0 0 0 0 0 -0 -13.6198 66.5983 -162.077 -2.80648 4.77597 14.3192 0 7.31558 2.84217e-014 4.25956 35.5897 -3.90507 0 21.7428 0 3.02333 12.5546 -2.87031 -3.55271e-015 21.6535 1.9685 0.268908 -11.8266 0.018868 0 12.49 -1.78429 -5.18818 -22.1863 -1.75999 3.56546 21.4407 -0.045508 -3.51614 9.50677 -17.4739 5.86532 -1.42109e-014 0 -33.1403 45.2881 -25.5101 30.0831 0 0 48.6347 -33.2845 -30.5006 21.3133 0 0 24.8506 -19.4086 6.1296 -3.55605 21.4407 -0.045508 7.21965 9.08584 4.8286 -5.86532 0 2.84217e-014 25.5751 49.2498 27.9974 -30.0831 0 -7.10543e-015 -20.1298 -23.8446 44.5371 -21.3133 0 -7.10543e-015 -9.9217 -16.2372 2.76579 8.92144 0 0 -0.11423 -41.3973 3.27081 0 -39.6329 0 126.984 77.5794 -124.301 0 -38.0584 -1.42109e-014 -7.02935 -3.14515 -2.12865 0 -5.79894 13.3822 -0 0 1.59028e-015 -8.92144 -7.10543e-015 0 -5.2503 -54.2005 -11.5848 3.55271e-015 -39.6329 -1.42109e-014 13.4587 76.7694 3.23966 7.10543e-015 -38.0584 -2.84217e-014 -1.85235 -6.25659 -16.7677 0 -5.79894 13.3822 3.97569e-016 3.18055e-015 -7.95139e-016 
0 0 0 0 0 -0 -13.6252 66.619 -161.773 -2.79367 4.69909 14.2721 3.55271e-015 7.31558 0 4.2407 35.6206 -3.8434 0 21.7428 2.84217e-014 2.95041 12.6132 -2.80693 0 21.6535 1.9685 0.329478 -11.7655 -0.030781 1.77636e-015 12.49 -1.78429 -5.17518 -22.3139 -1.82757 3.56546 21.4407 -0.045508 -3.48319 9.52045 -17.5205 5.86532 2.84217e-014 0 -33.2051 45.1401 -25.4225 30.0831 0 -7.10543e-015 48.6077 -33.4 -30.6186 21.3133 0 -7.10543e-015 24.9557 -19.4961 6.08733 -3.55605 21.4407 -0.045508 7.13445 8.53664 5.01409 -5.86532 0 -2.84217e-014 26.2308 49.8214 27.3839 -30.0831 0 0 -20.3683 -23.9915 44.3399 -21.3133 -1.42109e-014 0 -9.67353 -16.3425 2.9391 8.92144 0 0 -0.157714 -42.3937 3.5743 -7.10543e-015 -39.6329 1.42109e-014 126.909 77.1816 -124.176 -3.55271e-015 -38.0584 0 -6.76691 -2.90611 -2.3305 7.10543e-015 -5.79894 13.3822 1.59028e-015 -6.36111e-015 -1.59028e-015 -8.92144 7.10543e-015 0 -5.04656 -53.9467 -11.4573 -3.55271e-015 -39.6329 1.42109e-014 13.5045 76.884 3.1938 -7.10543e-015 -38.0584 0 -2.00037 -6.37522 -16.8282 -1.77636e-015 -5.79894 13.3822 3.97569e-016 6.36111e-015 7.95139e-016 
